<svg width="30" height="31" viewBox="0 0 30 31" fill="none" xmlns="http://www.w3.org/2000/svg">
<g clip-path="url(#clip0_4734_811)">
<path d="M12.3423 14.713C12.9648 14.3998 13.4355 14.0511 13.758 13.6742C14.3318 12.9954 14.6149 12.0953 14.6149 10.9796C14.6149 9.89385 14.3318 8.96565 13.7655 8.18746C12.8204 6.91986 11.2209 6.27106 8.95948 6.2373H0V24.5257H8.35381C9.29514 24.5257 10.1671 24.445 10.9734 24.28C11.7797 24.1131 12.4773 23.8075 13.0679 23.3612C13.593 22.9731 14.0318 22.4911 14.3806 21.923C14.9318 21.0641 15.2075 20.0909 15.2075 19.0071C15.2075 17.957 14.9656 17.0626 14.4856 16.3275C13.9999 15.5924 13.2873 15.0543 12.3423 14.713ZM3.69593 9.41382H7.73126C8.61821 9.41382 9.34952 9.50945 9.92331 9.69884C10.5871 9.97449 10.919 10.5352 10.919 11.3902C10.919 12.1572 10.6659 12.6935 10.1652 12.9954C9.66079 13.2973 9.00636 13.4491 8.2038 13.4491H3.69593V9.41382ZM10.0771 21.0304C9.63079 21.246 9.00261 21.3529 8.19817 21.3529H3.69593V16.4756H8.26005C9.05512 16.4813 9.67392 16.5863 10.1165 16.7832C10.904 17.1394 11.2959 17.792 11.2959 18.7465C11.2959 19.8715 10.8909 20.6291 10.0771 21.0304ZM19.1716 7.0905H27.1166V9.36694H19.1716V7.0905ZM29.8768 16.0744C29.7118 15.0149 29.348 14.0829 28.7817 13.2785C28.1611 12.3672 27.3735 11.6996 26.4153 11.2777C25.4608 10.8539 24.3864 10.642 23.19 10.6439C21.1817 10.6439 19.5504 11.2721 18.2884 12.5191C17.0301 13.7698 16.4001 15.5681 16.4001 17.912C16.4001 20.4116 17.0958 22.2174 18.4946 23.3256C19.8879 24.4357 21.4968 24.9888 23.3232 24.9888C25.534 24.9888 27.2535 24.3307 28.4817 23.0181C29.2674 22.1892 29.7118 21.3735 29.8093 20.5729H26.149C25.9371 20.9685 25.6915 21.2779 25.4102 21.5029C24.9002 21.9155 24.2364 22.1217 23.4225 22.1217C22.6481 22.1217 21.9918 21.9511 21.4443 21.6117C20.5404 21.0679 20.0679 20.1153 20.0079 18.7596H29.9968C30.0118 17.5914 29.9743 16.6932 29.8768 16.0744ZM20.0979 16.425C20.2292 15.5456 20.5479 14.848 21.0542 14.3323C21.5605 13.8186 22.2768 13.5598 23.1938 13.5579C24.0395 13.5579 24.7464 13.7998 25.3221 14.2855C25.8902 14.7749 26.2109 15.4856 26.2765 16.425H20.0979Z" fill="white" fill-opacity="0.4"/>
</g>
<defs>
<clipPath id="clip0_4734_811">
<rect width="30" height="30" fill="white" transform="translate(0 0.613281)"/>
</clipPath>
</defs>
</svg>
