<svg width="29" height="27" viewBox="0 0 29 27" fill="none" xmlns="http://www.w3.org/2000/svg">
<path d="M27.1131 14.6223H16.306V24.674C16.306 25.0598 16.1413 25.4299 15.8479 25.7027C15.5546 25.9755 15.1568 26.1288 14.7419 26.1288C14.3271 26.1288 13.9293 25.9755 13.6359 25.7027C13.3426 25.4299 13.1778 25.0598 13.1778 24.674V14.6223H2.37075C1.95592 14.6223 1.55809 14.469 1.26476 14.1962C0.971431 13.9233 0.806641 13.5533 0.806641 13.1675C0.806641 12.7816 0.971431 12.4116 1.26476 12.1388C1.55809 11.866 1.95592 11.7127 2.37075 11.7127H13.1778V1.66097C13.1778 1.27513 13.3426 0.9051 13.6359 0.632274C13.9293 0.359448 14.3271 0.206177 14.7419 0.206177C15.1568 0.206177 15.5546 0.359448 15.8479 0.632274C16.1413 0.9051 16.306 1.27513 16.306 1.66097V11.7127H27.1131C27.528 11.7127 27.9258 11.866 28.2191 12.1388C28.5124 12.4116 28.6772 12.7816 28.6772 13.1675C28.6772 13.5533 28.5124 13.9233 28.2191 14.1962C27.9258 14.469 27.528 14.6223 27.1131 14.6223Z" fill="#181818"/>
</svg>
