<svg width="30" height="30" viewBox="0 0 30 30" fill="none" xmlns="http://www.w3.org/2000/svg">
<path fill-rule="evenodd" clip-rule="evenodd" d="M20.8452 3.285C16.9124 2.4059 12.8341 2.4059 8.90141 3.285L8.47766 3.37875C7.37143 3.62607 6.35542 4.17523 5.5425 4.9652C4.72957 5.75518 4.15155 6.75505 3.87266 7.85375C2.87578 11.7819 2.87578 15.8968 3.87266 19.825C4.13863 20.8728 4.67692 21.8317 5.43295 22.6044C6.18898 23.3771 7.13589 23.9362 8.17766 24.225L8.75891 27.695C8.77746 27.8052 8.82522 27.9084 8.8972 27.9938C8.96918 28.0793 9.06276 28.1439 9.16819 28.1809C9.27362 28.2179 9.38704 28.226 9.49665 28.2043C9.60626 28.1826 9.70805 28.1319 9.79141 28.0575L13.2052 25.0037C15.7678 25.1601 18.3396 24.9552 20.8452 24.395L21.2702 24.3012C22.3764 24.0539 23.3924 23.5048 24.2053 22.7148C25.0183 21.9248 25.5963 20.9249 25.8752 19.8262C26.8719 15.8981 26.8719 11.7832 25.8752 7.855C25.5962 6.75614 25.018 5.75616 24.2048 4.96617C23.3916 4.17618 22.3754 3.62712 21.2689 3.38L20.8452 3.285ZM9.95641 7.7525C9.72409 7.71868 9.4872 7.76544 9.28516 7.885H9.26766C8.79891 8.16 8.37641 8.50625 8.01641 8.91375C7.71641 9.26 7.55391 9.61 7.51141 9.9475C7.48641 10.1475 7.50391 10.35 7.56266 10.5412L7.58516 10.5537C7.92266 11.545 8.36266 12.4987 8.90016 13.3962C9.59322 14.6569 10.4461 15.8227 11.4377 16.865L11.4677 16.9075L11.5152 16.9425L11.5439 16.9762L11.5789 17.0062C12.6248 18.0008 13.7934 18.8577 15.0564 19.5562C16.5002 20.3425 17.3764 20.7137 17.9027 20.8687V20.8762C18.0564 20.9237 18.1964 20.945 18.3377 20.945C18.7858 20.9119 19.21 20.7297 19.5427 20.4275C19.9489 20.0675 20.2927 19.6437 20.5602 19.1725V19.1637C20.8114 18.6887 20.7264 18.2412 20.3639 17.9375C19.6358 17.3013 18.8484 16.7362 18.0127 16.25C17.4527 15.9462 16.8839 16.13 16.6539 16.4375L16.1627 17.0575C15.9102 17.365 15.4527 17.3225 15.4527 17.3225L15.4402 17.33C12.0264 16.4587 11.1152 13.0025 11.1152 13.0025C11.1152 13.0025 11.0727 12.5325 11.3889 12.2925L12.0039 11.7975C12.2989 11.5575 12.5039 10.99 12.1877 10.43C11.7047 9.59345 11.1407 8.80634 10.5039 8.08C10.365 7.90905 10.1702 7.79263 9.95391 7.75125L9.95641 7.7525ZM15.7239 6.25C15.5581 6.25 15.3992 6.31584 15.282 6.43305C15.1648 6.55026 15.0989 6.70924 15.0989 6.875C15.0989 7.04076 15.1648 7.19973 15.282 7.31694C15.3992 7.43415 15.5581 7.5 15.7239 7.5C17.3052 7.5 18.6177 8.01625 19.6564 9.00625C20.1902 9.5475 20.6064 10.1887 20.8789 10.8912C21.1527 11.595 21.2777 12.3462 21.2452 13.0987C21.2417 13.1808 21.2545 13.2628 21.2827 13.3399C21.3109 13.4171 21.3541 13.4879 21.4097 13.5484C21.5219 13.6705 21.6781 13.743 21.8439 13.75C22.0097 13.757 22.1714 13.6978 22.2935 13.5855C22.4157 13.4732 22.4882 13.317 22.4952 13.1512C22.5339 12.2256 22.3803 11.302 22.0439 10.4387C21.7061 9.57141 21.1938 8.78264 20.5389 8.12125L20.5264 8.10875C19.2377 6.8775 17.6064 6.25 15.7239 6.25ZM15.6814 8.305C15.5156 8.305 15.3567 8.37084 15.2395 8.48805C15.1223 8.60526 15.0564 8.76424 15.0564 8.93C15.0564 9.09576 15.1223 9.25473 15.2395 9.37194C15.3567 9.48915 15.5156 9.555 15.6814 9.555H15.7027C16.8427 9.63625 17.6727 10.0162 18.2539 10.64C18.8502 11.2825 19.1589 12.0812 19.1352 13.0687C19.1313 13.2345 19.1935 13.395 19.3081 13.5149C19.4226 13.6348 19.58 13.7043 19.7458 13.7081C19.9115 13.7119 20.072 13.6497 20.1919 13.5352C20.3118 13.4207 20.3813 13.2633 20.3852 13.0975C20.4152 11.8012 19.9977 10.6825 19.1702 9.79V9.7875C18.3239 8.88 17.1627 8.4 15.7652 8.30625L15.7439 8.30375L15.6814 8.305ZM15.6577 10.3987C15.574 10.3914 15.4897 10.4009 15.4099 10.4268C15.33 10.4527 15.2562 10.4945 15.1928 10.5495C15.1294 10.6046 15.0778 10.6719 15.041 10.7474C15.0042 10.8228 14.9829 10.905 14.9786 10.9888C14.9742 11.0727 14.9868 11.1565 15.0155 11.2354C15.0443 11.3143 15.0887 11.3866 15.146 11.448C15.2033 11.5093 15.2724 11.5585 15.3491 11.5926C15.4259 11.6266 15.5087 11.6449 15.5927 11.6462C16.1152 11.6737 16.4489 11.8312 16.6589 12.0425C16.8702 12.255 17.0277 12.5962 17.0564 13.13C17.058 13.2139 17.0764 13.2966 17.1106 13.3732C17.1448 13.4498 17.1941 13.5187 17.2555 13.5759C17.3169 13.633 17.3892 13.6772 17.468 13.7059C17.5469 13.7345 17.6307 13.7469 17.7144 13.7425C17.7982 13.738 17.8802 13.7168 17.9556 13.68C18.031 13.6431 18.0982 13.5915 18.1532 13.5282C18.2082 13.4648 18.2499 13.3911 18.2758 13.3113C18.3017 13.2315 18.3112 13.1473 18.3039 13.0637C18.2639 12.3137 18.0289 11.6512 17.5477 11.1637C17.0639 10.6762 16.4052 10.4387 15.6577 10.3987Z" fill="white"/>
</svg>
