<svg width="78" height="22" viewBox="0 0 78 22" fill="none" xmlns="http://www.w3.org/2000/svg">
<path d="M0.525391 21.5234V1.03687H4.85677V17.9522H13.6396V21.5234H0.525391Z" fill="#181818"/>
<path d="M34.5357 11.2801C34.5357 13.5141 34.1122 15.4147 33.2653 16.9819C32.425 18.549 31.278 19.7461 29.8242 20.573C28.3771 21.3933 26.7499 21.8034 24.9427 21.8034C23.1221 21.8034 21.4882 21.3899 20.0411 20.563C18.594 19.7361 17.4503 18.539 16.61 16.9719C15.7697 15.4047 15.3496 13.5074 15.3496 11.2801C15.3496 9.04602 15.7697 7.14541 16.61 5.57825C17.4503 4.01108 18.594 2.81737 20.0411 1.99711C21.4882 1.17018 23.1221 0.756714 24.9427 0.756714C26.7499 0.756714 28.3771 1.17018 29.8242 1.99711C31.278 2.81737 32.425 4.01108 33.2653 5.57825C34.1122 7.14541 34.5357 9.04602 34.5357 11.2801ZM30.1443 11.2801C30.1443 9.83294 29.9276 8.61255 29.4941 7.6189C29.0673 6.62525 28.4638 5.87168 27.6835 5.35818C26.9033 4.84468 25.9897 4.58793 24.9427 4.58793C23.8957 4.58793 22.982 4.84468 22.2018 5.35818C21.4215 5.87168 20.8147 6.62525 20.3812 7.6189C19.9544 8.61255 19.741 9.83294 19.741 11.2801C19.741 12.7272 19.9544 13.9476 20.3812 14.9412C20.8147 15.9349 21.4215 16.6884 22.2018 17.2019C22.982 17.7154 23.8957 17.9722 24.9427 17.9722C25.9897 17.9722 26.9033 17.7154 27.6835 17.2019C28.4638 16.6884 29.0673 15.9349 29.4941 14.9412C29.9276 13.9476 30.1443 12.7272 30.1443 11.2801Z" fill="#4F4F4F"/>
<path d="M51.3292 7.65891C51.1892 7.17209 50.9924 6.74195 50.739 6.3685C50.4856 5.98838 50.1755 5.66828 49.8087 5.4082C49.4486 5.14144 49.0351 4.93805 48.5683 4.798C48.1082 4.65796 47.598 4.58793 47.0378 4.58793C45.9908 4.58793 45.0705 4.84802 44.277 5.36818C43.49 5.88835 42.8765 6.64525 42.4364 7.6389C41.9962 8.62588 41.7762 9.83294 41.7762 11.2601C41.7762 12.6872 41.9929 13.9009 42.4264 14.9012C42.8598 15.9015 43.4734 16.6651 44.267 17.1919C45.0605 17.7121 45.9975 17.9722 47.0779 17.9722C48.0582 17.9722 48.8951 17.7988 49.5886 17.452C50.2889 17.0986 50.8224 16.6018 51.1892 15.9616C51.5626 15.3213 51.7493 14.5644 51.7493 13.6908L52.6296 13.8209H47.3479V10.5598H55.9207V13.1407C55.9207 14.9412 55.5405 16.4884 54.7803 17.7821C54.0201 19.0692 52.9731 20.0629 51.6393 20.7631C50.3055 21.4566 48.7784 21.8034 47.0578 21.8034C45.1372 21.8034 43.45 21.3799 41.9962 20.533C40.5424 19.6794 39.4087 18.469 38.5952 16.9019C37.7882 15.328 37.3848 13.4608 37.3848 11.3001C37.3848 9.63954 37.6248 8.15907 38.105 6.85866C38.5918 5.55157 39.272 4.44455 40.1456 3.5376C41.0193 2.63064 42.0362 1.94042 43.1966 1.46694C44.357 0.993456 45.6141 0.756714 46.9678 0.756714C48.1282 0.756714 49.2085 0.926768 50.2088 1.26688C51.2092 1.60032 52.0961 2.0738 52.8697 2.68733C53.6499 3.30086 54.2868 4.03109 54.7803 4.87803C55.2738 5.71829 55.5906 6.64525 55.7306 7.65891H51.3292Z" fill="#1B3990"/>
<path d="M78.0006 11.2801C78.0006 13.5141 77.5771 15.4147 76.7302 16.9819C75.8899 18.549 74.7429 19.7461 73.2891 20.573C71.8419 21.3933 70.2147 21.8034 68.4075 21.8034C66.5869 21.8034 64.9531 21.3899 63.5059 20.563C62.0588 19.7361 60.9151 18.539 60.0749 16.9719C59.2346 15.4047 58.8145 13.5074 58.8145 11.2801C58.8145 9.04602 59.2346 7.14541 60.0749 5.57825C60.9151 4.01108 62.0588 2.81737 63.5059 1.99711C64.9531 1.17018 66.5869 0.756714 68.4075 0.756714C70.2147 0.756714 71.8419 1.17018 73.2891 1.99711C74.7429 2.81737 75.8899 4.01108 76.7302 5.57825C77.5771 7.14541 78.0006 9.04602 78.0006 11.2801ZM73.6092 11.2801C73.6092 9.83294 73.3924 8.61255 72.959 7.6189C72.5321 6.62525 71.9286 5.87168 71.1484 5.35818C70.3681 4.84468 69.4545 4.58793 68.4075 4.58793C67.3605 4.58793 66.4469 4.84468 65.6666 5.35818C64.8864 5.87168 64.2795 6.62525 63.846 7.6189C63.4192 8.61255 63.2059 9.83294 63.2059 11.2801C63.2059 12.7272 63.4192 13.9476 63.846 14.9412C64.2795 15.9349 64.8864 16.6884 65.6666 17.2019C66.4469 17.7154 67.3605 17.9722 68.4075 17.9722C69.4545 17.9722 70.3681 17.7154 71.1484 17.2019C71.9286 16.6884 72.5321 15.9349 72.959 14.9412C73.3924 13.9476 73.6092 12.7272 73.6092 11.2801Z" fill="#E55030"/>
</svg>
