<?xml version="1.0" encoding="utf-8"?><svg viewBox="0 0 30 31" xmlns="http://www.w3.org/2000/svg" xmlns:xlink="http://www.w3.org/1999/xlink"><style>:root>svg{display:none}:root>svg:target{display:block}</style><svg viewBox="0 0 22 15" id="arrow-right" xmlns="http://www.w3.org/2000/svg"><path d="M1 7.5h20m0 0L14.41 14M21 7.5 14.41 1"/></svg><svg viewBox="0 0 30 31" id="be" xmlns="http://www.w3.org/2000/svg"><g clip-path="url(#ba)"><path d="M12.342 14.713c.623-.313 1.093-.662 1.416-1.039.574-.679.857-1.579.857-2.694 0-1.086-.283-2.014-.85-2.793-.945-1.267-2.544-1.916-4.806-1.95H0v18.289h8.354c.941 0 1.813-.081 2.62-.246.806-.167 1.503-.473 2.094-.919.525-.388.964-.87 1.313-1.438.55-.859.826-1.832.826-2.916 0-1.05-.241-1.944-.721-2.68-.486-.735-1.199-1.273-2.144-1.614Zm-8.646-5.3H7.73c.887 0 1.619.096 2.192.286.664.275.996.836.996 1.691 0 .767-.253 1.303-.754 1.605-.504.302-1.159.454-1.961.454H3.696V9.414Zm6.381 11.617c-.446.216-1.074.323-1.879.323H3.696v-4.877H8.26c.795.005 1.414.11 1.857.307.787.356 1.179 1.009 1.179 1.963 0 1.126-.405 1.883-1.219 2.284Zm9.095-13.94h7.945v2.277h-7.945V7.09Zm10.705 8.984c-.165-1.06-.529-1.991-1.095-2.796-.62-.91-1.409-1.578-2.367-2-.954-.424-2.029-.636-3.225-.634-2.008 0-3.64.628-4.902 1.875-1.258 1.25-1.888 3.05-1.888 5.393 0 2.5.696 4.305 2.095 5.414 1.393 1.11 3.002 1.663 4.828 1.663 2.211 0 3.93-.658 5.159-1.97.785-.83 1.23-1.645 1.327-2.446h-3.66c-.212.395-.457.705-.739.93-.51.413-1.174.619-1.988.619-.774 0-1.43-.17-1.978-.51-.904-.544-1.376-1.497-1.436-2.852h9.989c.015-1.169-.023-2.067-.12-2.686Zm-9.78.351c.132-.88.45-1.577.957-2.093.507-.513 1.223-.772 2.14-.774.846 0 1.552.242 2.128.728.568.489.889 1.2.954 2.139h-6.178Z" fill-opacity=".4"/></g><defs><clipPath id="ba"><path transform="translate(0 .613)" d="M0 0h30v30H0z"/></clipPath></defs></svg><svg viewBox="0 0 29 27" id="plus" xmlns="http://www.w3.org/2000/svg"><path d="M27.113 14.622H16.306v10.052c0 .386-.165.756-.458 1.029a1.626 1.626 0 0 1-1.106.426c-.415 0-.813-.154-1.106-.426a1.405 1.405 0 0 1-.458-1.029V14.622H2.37c-.415 0-.813-.153-1.106-.426a1.405 1.405 0 0 1-.458-1.028c0-.386.164-.756.458-1.03a1.626 1.626 0 0 1 1.106-.425h10.807V1.66c0-.386.165-.756.458-1.029a1.626 1.626 0 0 1 1.106-.426c.415 0 .813.153 1.106.426.293.273.458.643.458 1.029v10.052h10.807c.415 0 .813.153 1.106.426.293.273.458.643.458 1.029 0 .385-.165.755-.458 1.028a1.626 1.626 0 0 1-1.106.426Z"/></svg><svg viewBox="0 0 28 22" id="quote" xmlns="http://www.w3.org/2000/svg"><path d="m28 0-5.942 12.992-.52-3.51c1.14 0 2.154.274 3.046.822a6.419 6.419 0 0 1 2.153 2.165c.545.847.817 1.817.817 2.912s-.272 2.091-.817 2.987a6.418 6.418 0 0 1-2.153 2.165c-.892.498-1.907.747-3.046.747a6.412 6.412 0 0 1-3.045-.747 6.219 6.219 0 0 1-2.153-2.24c-.545-.945-.817-1.99-.817-3.136 0-1.145.222-2.34.668-3.584.495-1.244 1.362-2.862 2.6-4.853L22.8 0H28ZM12.477 0 6.536 12.992l-.52-3.51c1.139 0 2.154.274 3.045.822a6.42 6.42 0 0 1 2.154 2.165c.544.847.817 1.817.817 2.912s-.273 2.091-.817 2.987a6.419 6.419 0 0 1-2.154 2.165c-.891.498-1.906.747-3.045.747a6.412 6.412 0 0 1-3.045-.747 6.219 6.219 0 0 1-2.154-2.24C.272 17.348 0 16.303 0 15.157c0-1.145.223-2.34.668-3.584.496-1.244 1.362-2.862 2.6-4.853L7.278 0h5.2Z"/></svg><svg viewBox="0 0 30 31" id="teleg" xmlns="http://www.w3.org/2000/svg"><path d="m12.095 19.192-.447 6.282c.639 0 .916-.274 1.248-.604l2.995-2.863 6.208 4.546c1.139.635 1.941.3 2.248-1.047l4.075-19.094h.001c.361-1.684-.608-2.342-1.718-1.929l-23.952 9.17c-1.634.634-1.61 1.546-.277 1.958l6.123 1.905 14.224-8.9c.67-.443 1.278-.198.777.245L12.095 19.192Z" fill-opacity=".4"/></svg><svg viewBox="0 0 30 30" id="tg_round" xmlns="http://www.w3.org/2000/svg"><path d="M15 2.5C8.1 2.5 2.5 8.1 2.5 15S8.1 27.5 15 27.5 27.5 21.9 27.5 15 21.9 2.5 15 2.5Zm5.8 8.5c-.188 1.975-1 6.775-1.413 8.988-.175.937-.524 1.25-.85 1.287-.724.063-1.274-.475-1.974-.938-1.1-.724-1.725-1.174-2.788-1.875-1.238-.812-.438-1.262.275-1.987.188-.188 3.387-3.1 3.45-3.363a.25.25 0 0 0-.063-.225c-.075-.062-.175-.037-.262-.024-.113.024-1.863 1.187-5.275 3.487-.5.337-.95.512-1.35.5-.45-.013-1.3-.25-1.938-.463-.787-.25-1.4-.387-1.35-.825.026-.224.338-.45.926-.687 3.65-1.588 6.074-2.637 7.287-3.137 3.475-1.45 4.188-1.7 4.662-1.7.1 0 .338.024.488.15.125.1.163.237.175.337-.012.075.012.3 0 .475Z"/></svg><svg viewBox="0 0 30 30" id="viber" xmlns="http://www.w3.org/2000/svg"><path fill-rule="evenodd" clip-rule="evenodd" d="M20.845 3.285a27.375 27.375 0 0 0-11.944 0l-.423.094a6.131 6.131 0 0 0-4.605 4.475 24.334 24.334 0 0 0 0 11.971 6.131 6.131 0 0 0 4.305 4.4l.58 3.47a.624.624 0 0 0 1.033.363l3.414-3.054a27.372 27.372 0 0 0 7.64-.609l.425-.094a6.13 6.13 0 0 0 4.605-4.475 24.338 24.338 0 0 0 0-11.971A6.131 6.131 0 0 0 21.27 3.38l-.424-.095ZM9.956 7.753a1.027 1.027 0 0 0-.67.132h-.018a5.135 5.135 0 0 0-1.252 1.029c-.3.346-.462.696-.505 1.034-.025.2-.007.402.052.593l.022.013c.338.991.778 1.945 1.315 2.842a16.715 16.715 0 0 0 2.538 3.469l.03.043.047.034.029.034.035.03a16.951 16.951 0 0 0 3.477 2.55c1.444.787 2.32 1.158 2.847 1.313v.007c.153.048.293.069.435.069a2.013 2.013 0 0 0 1.205-.518c.406-.36.75-.783 1.017-1.255v-.008c.251-.475.166-.923-.196-1.227a15.159 15.159 0 0 0-2.351-1.687c-.56-.304-1.13-.12-1.36.188l-.49.62c-.253.307-.71.265-.71.265l-.013.007c-3.414-.871-4.325-4.327-4.325-4.327s-.042-.47.274-.71l.615-.495c.295-.24.5-.808.184-1.368a14.76 14.76 0 0 0-1.684-2.35.935.935 0 0 0-.55-.329l.002.002Zm5.768-1.503a.625.625 0 1 0 0 1.25c1.581 0 2.894.516 3.932 1.506.534.541.95 1.183 1.223 1.885a5.44 5.44 0 0 1 .366 2.208.625.625 0 1 0 1.25.052 6.7 6.7 0 0 0-.451-2.712 6.803 6.803 0 0 0-1.505-2.318l-.013-.012c-1.288-1.231-2.92-1.859-4.802-1.859Zm-.043 2.055a.625.625 0 1 0 0 1.25h.022c1.14.081 1.97.461 2.55 1.085.597.643.906 1.441.882 2.429a.624.624 0 1 0 1.25.028c.03-1.296-.387-2.415-1.215-3.307v-.002c-.846-.908-2.007-1.388-3.405-1.482l-.021-.002-.063.001Zm-.023 2.094a.626.626 0 0 0-.512 1.049.626.626 0 0 0 .447.198c.522.028.856.185 1.066.396.211.213.369.554.397 1.088a.626.626 0 1 0 1.248-.066c-.04-.75-.275-1.413-.756-1.9-.484-.488-1.143-.725-1.89-.765Z"/></svg><svg viewBox="0 0 30 31" id="vk" xmlns="http://www.w3.org/2000/svg"><g clip-path="url(#ha)"><path d="M26.6 14.21c.426-.55.765-.993 1.015-1.327 1.801-2.395 2.582-3.925 2.343-4.592l-.094-.156c-.062-.094-.224-.18-.484-.258-.26-.078-.594-.09-1-.04l-4.498.033a1.281 1.281 0 0 0-.516.054l-.078.039-.062.047a.693.693 0 0 0-.172.164 1.06 1.06 0 0 0-.156.273 25.492 25.492 0 0 1-1.671 3.515 33.56 33.56 0 0 1-1.062 1.679c-.323.474-.594.823-.813 1.046a5.632 5.632 0 0 1-.593.539c-.177.136-.313.193-.406.172a7.814 7.814 0 0 1-.266-.063 1.03 1.03 0 0 1-.351-.382 1.719 1.719 0 0 1-.18-.61 6.572 6.572 0 0 1-.054-.632 12.43 12.43 0 0 1 .008-.75c.01-.323.015-.541.015-.656 0-.395.008-.825.024-1.288.015-.464.028-.831.039-1.102.01-.27.015-.557.015-.859 0-.301-.018-.539-.055-.71a2.482 2.482 0 0 0-.163-.5.838.838 0 0 0-.321-.375 1.806 1.806 0 0 0-.523-.211c-.552-.125-1.255-.192-2.109-.203-1.937-.02-3.181.105-3.733.375a2.11 2.11 0 0 0-.594.469c-.187.23-.213.354-.077.374.624.094 1.067.318 1.327.672l.094.187c.073.136.146.376.219.72.072.343.12.723.14 1.14.052.76.052 1.41 0 1.952s-.101.963-.148 1.265a2.536 2.536 0 0 1-.21.733 3.075 3.075 0 0 1-.188.345.273.273 0 0 1-.078.078 1.174 1.174 0 0 1-.422.078c-.146 0-.323-.074-.531-.22a3.694 3.694 0 0 1-.648-.6 7.997 7.997 0 0 1-.758-1.07c-.281-.458-.573-1-.875-1.625l-.25-.453c-.156-.291-.37-.716-.64-1.273-.27-.557-.51-1.096-.718-1.617a1.035 1.035 0 0 0-.375-.5l-.078-.046a1.062 1.062 0 0 0-.25-.133 1.684 1.684 0 0 0-.36-.101L1 7.837c-.437 0-.733.1-.89.298l-.062.093a.504.504 0 0 0-.047.25c0 .115.031.256.094.422a51.557 51.557 0 0 0 2.038 4.248c.734 1.365 1.372 2.463 1.914 3.296a38.92 38.92 0 0 0 1.655 2.36c.563.739.935 1.212 1.117 1.42.182.209.325.365.43.469l.39.375c.25.25.617.549 1.101.898.485.35 1.02.693 1.61 1.03.587.34 1.272.615 2.053.829.781.214 1.541.3 2.28.257h1.797c.364-.03.64-.145.828-.343l.062-.078a1.09 1.09 0 0 0 .117-.289c.036-.13.055-.273.055-.43-.01-.447.023-.851.101-1.21.078-.36.167-.63.266-.812.099-.182.21-.336.336-.461.125-.125.213-.2.265-.226.053-.026.094-.044.125-.055.25-.083.544-.003.883.242.338.245.656.546.953.906.297.36.653.762 1.07 1.21.416.448.78.781 1.093 1l.313.188c.208.124.478.239.812.343.333.104.625.13.874.078l4-.062c.395 0 .702-.065.92-.196.22-.129.35-.273.391-.429.041-.156.044-.332.008-.53a1.937 1.937 0 0 0-.11-.414 2.113 2.113 0 0 0-.101-.195c-.52-.938-1.515-2.088-2.983-3.453l-.032-.03-.015-.016-.016-.016h-.015c-.667-.635-1.089-1.062-1.265-1.28-.323-.417-.396-.839-.22-1.266.125-.323.593-1.005 1.406-2.047Z" fill-opacity=".4"/></g><defs><clipPath id="ha"><path transform="translate(0 .613)" d="M0 0h30v30H0z"/></clipPath></defs></svg><svg viewBox="0 0 30 30" id="vk_round" xmlns="http://www.w3.org/2000/svg"><path d="M5.325 5.325C3.75 6.915 3.75 9.457 3.75 14.55v.9c0 5.085 0 7.628 1.575 9.225 1.59 1.575 4.132 1.575 9.225 1.575h.9c5.085 0 7.628 0 9.225-1.575 1.575-1.59 1.575-4.133 1.575-9.225v-.9c0-5.085 0-7.628-1.575-9.225-1.59-1.575-4.133-1.575-9.225-1.575h-.9c-5.085 0-7.628 0-9.225 1.575Zm2.22 5.272h2.58c.082 4.29 1.973 6.106 3.473 6.48v-6.48h2.422v3.698c1.477-.158 3.038-1.845 3.563-3.705h2.415a7.145 7.145 0 0 1-3.286 4.672 7.4 7.4 0 0 1 3.848 4.695h-2.662c-.57-1.777-1.995-3.157-3.878-3.345v3.346h-.3c-5.13 0-8.055-3.51-8.175-9.36Z"/></svg><svg viewBox="0 0 30 30" id="whatsup" xmlns="http://www.w3.org/2000/svg"><path d="M15 2.5c6.904 0 12.5 5.596 12.5 12.5S21.904 27.5 15 27.5a12.441 12.441 0 0 1-6.287-1.694L2.505 27.5l1.69-6.21A12.441 12.441 0 0 1 2.5 15C2.5 8.096 8.096 2.5 15 2.5Zm-4.26 6.625-.25.01c-.162.01-.32.052-.465.125-.136.077-.26.173-.367.285-.15.141-.235.264-.327.383a3.412 3.412 0 0 0-.707 2.097c.002.612.162 1.209.412 1.766.512 1.128 1.353 2.322 2.463 3.428.267.266.53.534.812.782a11.808 11.808 0 0 0 4.8 2.558l.71.108c.231.013.463-.005.695-.016.364-.018.72-.117 1.042-.288.163-.085.323-.177.478-.276 0 0 .054-.035.156-.112.17-.125.273-.214.413-.36.104-.107.194-.234.262-.377.098-.204.195-.593.235-.917.03-.247.022-.382.018-.466-.005-.134-.116-.273-.238-.331l-.727-.326s-1.088-.474-1.753-.777a.623.623 0 0 0-.22-.051.602.602 0 0 0-.472.159c-.006-.003-.09.069-.994 1.163a.438.438 0 0 1-.46.163 1.782 1.782 0 0 1-.239-.082l-.314-.136a7.532 7.532 0 0 1-1.97-1.253c-.157-.138-.303-.288-.453-.433a7.869 7.869 0 0 1-1.275-1.585l-.074-.118a1.153 1.153 0 0 1-.127-.257c-.048-.184.076-.331.076-.331s.304-.332.445-.512c.138-.175.254-.345.329-.467.147-.237.194-.481.116-.67-.35-.855-.713-1.706-1.085-2.551-.074-.168-.293-.288-.491-.311a5.548 5.548 0 0 0-.203-.02 4.232 4.232 0 0 0-.503.005l.252-.009Z"/></svg></svg>