<svg width="10" height="10" viewBox="0 0 10 10" fill="none" xmlns="http://www.w3.org/2000/svg">
<path d="M3.30779 1.02235C3.19062 1.13955 3.1248 1.29849 3.1248 1.46422C3.1248 1.62995 3.19062 1.78889 3.30779 1.9061L6.40154 4.99985L3.30779 8.0936C3.19394 8.21147 3.13094 8.36935 3.13237 8.53322C3.13379 8.6971 3.19952 8.85385 3.3154 8.96973C3.43128 9.08561 3.58804 9.15134 3.75191 9.15277C3.91579 9.15419 4.07366 9.0912 4.19154 8.97735L7.72716 5.44172C7.84433 5.32452 7.91016 5.16557 7.91016 4.99985C7.91016 4.83412 7.84433 4.67518 7.72716 4.55797L4.19154 1.02235C4.07433 0.905177 3.91539 0.839355 3.74966 0.839355C3.58394 0.839355 3.42499 0.905177 3.30779 1.02235Z" fill="#9B9B9B"/>
</svg>
