<svg width="188" height="40" viewBox="0 0 188 40" fill="none" xmlns="http://www.w3.org/2000/svg">
<path d="M3.93132 20.1779C3.73801 12.2523 16.2385 12.2523 16.1096 20.1134C16.174 24.044 13.1456 26.0415 10.0527 26.0415C6.95978 26.0415 3.86688 24.1084 3.93132 20.1779ZM2.96479 13.0255C0.96729 15.023 0.000759082 17.4072 0.000759082 20.1134V38.0909C-0.0636763 40.6683 3.99575 40.6039 3.93132 38.0909V28.1034C10.1815 33.1938 20.3623 28.2323 20.0402 20.1134C20.2979 14.1854 14.9498 10.0615 9.7305 10.0615C7.28196 10.126 4.83341 11.0281 2.96479 13.0255Z" fill="#1B3990"/>
<path d="M22.9389 2.00728V28.0392C22.8744 29.7789 25.1297 30.7454 26.3539 29.4567C26.7405 29.0701 26.9338 28.6191 26.9338 28.0392V2.00728C26.9338 0.718572 25.9673 0.0742188 24.9363 0.0742188C23.9054 0.138654 22.9389 0.718572 22.9389 2.00728Z" fill="#1B3990"/>
<path d="M45.6851 19.9846C45.7495 23.0774 43.8164 26.1703 39.8859 26.0415C35.762 26.1703 33.8289 23.0774 33.8934 19.9846C33.9578 16.9561 35.9553 13.8632 39.8859 13.9276C43.6876 13.8632 45.6851 16.9561 45.6851 19.9846ZM32.7335 12.9611C23.9059 21.5954 36.1486 35.3846 45.8139 27.9745C45.8784 30.4875 49.8089 30.6164 49.7445 27.9745V20.1134C50.0667 14.1209 44.8474 9.99707 39.5637 9.99707C37.1151 9.99707 34.6666 10.8992 32.7335 12.9611Z" fill="#1B3990"/>
<path d="M52.1934 15.9896C52.1934 19.018 54.1264 22.0465 58.057 21.982C62.5675 22.6264 58.508 28.7478 56.0595 24.8816C53.0955 20.4356 50.1314 26.0415 54.3197 28.7478C59.99 33.516 67.5934 24.8172 62.3097 19.7912C60.8277 17.8582 58.3792 18.567 56.6394 17.4071C54.3197 15.1519 58.7658 12.3167 59.9256 15.023C63.534 20.5 66.9491 10.4481 58.057 9.99707H57.9281C54.1264 9.99707 52.2578 12.9611 52.1934 15.9896Z" fill="#1B3990"/>
<path d="M72.6185 0.00329227C69.2035 -0.190014 71.1365 8.18658 70.6855 9.99077H69.7834C68.1081 9.92634 65.7884 9.8619 65.7884 11.9883C65.724 14.1146 68.1081 14.0502 69.7834 13.9858H70.621V28.0971C70.5566 29.0636 71.5231 30.159 72.5541 30.0946C73.6495 30.159 74.616 29.0636 74.5516 28.0971V13.9278H77.3868C78.6755 13.9278 79.3198 12.9612 79.3198 11.9303C79.3198 10.8993 78.6755 9.93278 77.3868 9.93278H74.5516C74.165 8.25746 76.0336 0.00329227 72.8118 0.00329227H72.6185Z" fill="#1B3990"/>
<path d="M81.5114 11.9304C81.7047 12.4459 80.9314 29.8434 82.0913 29.4568C83.1867 30.7455 85.5064 29.779 85.4419 28.0392V11.9304C85.4419 10.6417 84.4754 9.99731 83.4444 9.99731C82.5423 9.99731 81.5114 10.6417 81.5114 11.9304ZM83.5733 2.00732C82.2846 2.00732 81.6402 2.97385 81.6402 4.00482C81.6402 5.03579 82.2846 6.00232 83.5733 6.00232C84.862 6.06675 85.5064 5.03579 85.5064 4.00482C85.4419 2.97385 84.7976 2.00732 83.5733 2.00732Z" fill="#1B3990"/>
<path d="M88.599 2.00728V28.0392C88.5346 29.7789 90.7898 30.7454 92.0141 29.4567C92.4007 29.0701 92.594 28.6191 92.594 28.0392V2.00728C92.594 0.718572 91.6275 0.0742188 90.5965 0.0742188C89.63 0.138654 88.599 0.718572 88.599 2.00728Z" fill="#1B3990"/>
<path d="M95.6875 11.9304V28.0392C95.6875 29.1346 96.5896 30.0367 97.685 30.0367C98.716 30.0367 99.6825 29.1346 99.6181 28.0392V11.9304C99.6181 10.6417 98.6515 9.99731 97.6206 9.99731C96.654 9.99731 95.6875 10.6417 95.6875 11.9304ZM97.685 2.00732C96.3963 2.00732 95.7519 2.97385 95.7519 4.00482C95.7519 5.03579 96.3963 6.00232 97.685 6.00232C98.9737 6.06675 99.6181 5.03579 99.6181 4.00482C99.6181 2.97385 98.9737 2.00732 97.685 2.00732Z" fill="#1B3990"/>
<path d="M102.583 28.0394C102.518 30.6169 106.642 30.6169 106.513 28.0394V19.985C106.32 12.0595 118.82 12.1239 118.691 19.985V28.0394C118.627 30.6169 122.686 30.6169 122.622 28.0394C123.073 20.1783 123.009 10.2553 112.57 9.93311C102.196 10.2553 102.132 20.1139 102.583 28.0394Z" fill="#1B3990"/>
<path d="M27.6428 39.8303H26.934L25.7098 35.7065C25.6453 35.5132 25.5809 35.3199 25.5165 34.9977C25.452 34.7399 25.3876 34.5466 25.3876 34.4822C25.3232 34.8688 25.1943 35.2554 25.0654 35.7065L23.8411 39.8303H23.1324L21.457 33.6445H22.2303L23.1968 37.4462C23.3257 37.9617 23.4545 38.4772 23.519 38.9282C23.5834 38.4127 23.7123 37.8973 23.8411 37.3818L24.9365 33.6445H25.7742L26.934 37.4462C27.0629 37.8973 27.1918 38.3483 27.2562 38.9282C27.3206 38.5416 27.3851 38.0261 27.5784 37.4462L28.5449 33.6445H29.3181L27.6428 39.8303Z" fill="#181818"/>
<path d="M46.0713 39.8303H42.5918V33.6445H46.0713V34.2889H43.365V36.2864H45.9424V36.9307H43.365V39.186H46.0713V39.8303Z" fill="#181818"/>
<path d="M59.7969 33.6445H61.5366C62.3743 33.6445 62.9542 33.7734 63.3408 34.0311C63.7274 34.2889 63.9207 34.6755 63.9207 35.191C63.9207 35.5776 63.7919 35.8353 63.5986 36.0931C63.4053 36.3508 63.0831 36.4797 62.6965 36.5441V36.6086C63.663 36.8019 64.114 37.2529 64.114 38.0906C64.114 38.6705 63.9207 39.0571 63.5341 39.3793C63.1475 39.7015 62.632 39.8303 61.9877 39.8303H59.7969V33.6445ZM60.5057 36.2864H61.6655C62.181 36.2864 62.5676 36.2219 62.7609 36.0286C62.9542 35.8998 63.0831 35.5776 63.0831 35.191C63.0831 34.8688 62.9542 34.6111 62.6965 34.4178C62.4387 34.2889 62.0521 34.16 61.5366 34.16H60.5057V36.2864ZM60.5057 36.9307V39.2504H61.7944C62.3099 39.2504 62.6965 39.186 62.9542 38.9282C63.2119 38.7349 63.3408 38.4127 63.3408 38.0261C63.3408 37.6395 63.2119 37.3818 62.9542 37.1885C62.6965 36.9952 62.3099 36.9307 61.7944 36.9307H60.5057Z" fill="#181818"/>
<path d="M95.8798 38.2199C95.8798 38.7354 95.6865 39.1864 95.2999 39.5086C94.9133 39.8308 94.3978 39.9597 93.689 39.9597C92.9802 39.9597 92.4003 39.8952 92.0137 39.7019V38.9931C92.2714 39.122 92.5292 39.1864 92.8513 39.2509C93.1735 39.3153 93.4312 39.3153 93.7534 39.3153C94.2045 39.3153 94.5911 39.2509 94.8488 39.0576C95.1066 38.8643 95.2354 38.6065 95.2354 38.2843C95.2354 38.091 95.171 37.8977 95.1066 37.7689C95.0421 37.64 94.8488 37.5111 94.6555 37.3823C94.4622 37.2534 94.14 37.1245 93.7534 36.9956C93.1735 36.8023 92.7869 36.5446 92.5292 36.2869C92.2714 36.0291 92.1425 35.6425 92.1425 35.1915C92.1425 34.7404 92.3358 34.3538 92.658 34.0316C93.0446 33.7739 93.4957 33.5806 94.0756 33.5806C94.72 33.5806 95.2354 33.7094 95.7509 33.9027L95.5576 34.5471C95.0421 34.3538 94.5266 34.2249 94.0756 34.2249C93.689 34.2249 93.3668 34.2894 93.1735 34.4827C92.9802 34.676 92.8513 34.8693 92.8513 35.1915C92.8513 35.3848 92.9158 35.5781 92.9802 35.7069C93.0446 35.8358 93.1735 35.9647 93.3668 36.0935C93.5601 36.2224 93.8179 36.3513 94.2045 36.4802C94.8488 36.7379 95.2999 36.9312 95.5576 37.2534C95.7509 37.4467 95.8798 37.7689 95.8798 38.2199Z" fill="#181818"/>
<path d="M111.345 39.8303H110.636V34.2889H108.703V33.6445H113.342V34.2889H111.409L111.345 39.8303Z" fill="#181818"/>
<path d="M131.255 33.645V37.64C131.255 38.3488 131.061 38.9287 130.61 39.3153C130.159 39.7019 129.579 39.8952 128.87 39.8952C128.097 39.8952 127.517 39.7019 127.131 39.3153C126.744 38.9287 126.551 38.3488 126.551 37.64V33.645H127.26V37.7044C127.26 38.2199 127.388 38.6065 127.711 38.8643C127.968 39.122 128.419 39.2509 128.935 39.2509C129.45 39.2509 129.837 39.122 130.159 38.8643C130.417 38.6065 130.61 38.2199 130.61 37.64V33.5806H131.255V33.645Z" fill="#181818"/>
<path d="M150.2 36.673C150.2 37.704 149.942 38.4772 149.362 38.9927C148.782 39.5081 148.009 39.8303 146.978 39.8303H145.238V33.6445H147.107C148.073 33.6445 148.847 33.9023 149.362 34.4178C149.942 34.9977 150.2 35.7065 150.2 36.673ZM149.427 36.7374C149.427 35.8998 149.233 35.3199 148.847 34.9332C148.46 34.5466 147.816 34.2889 147.042 34.2889H146.012V39.2504H146.914C147.751 39.2504 148.396 39.0571 148.847 38.6061C149.233 38.155 149.427 37.5107 149.427 36.7374Z" fill="#181818"/>
<path d="M163.924 39.8303V33.6445H164.633V39.8303H163.924Z" fill="#181818"/>
<path d="M184.028 36.7379C184.028 37.7044 183.77 38.4776 183.254 39.0576C182.739 39.6375 182.03 39.8952 181.193 39.8952C180.29 39.8952 179.582 39.6375 179.066 39.0576C178.551 38.4776 178.293 37.7044 178.293 36.6734C178.293 35.6425 178.551 34.8693 179.066 34.3538C179.582 33.7739 180.29 33.5161 181.193 33.5161C182.095 33.5161 182.803 33.7739 183.254 34.3538C183.834 34.9337 184.028 35.7069 184.028 36.7379ZM179.131 36.7379C179.131 37.5755 179.324 38.2199 179.646 38.6709C180.033 39.122 180.548 39.3153 181.193 39.3153C181.901 39.3153 182.417 39.122 182.739 38.6709C183.061 38.2199 183.254 37.5755 183.254 36.7379C183.254 35.9002 183.061 35.2559 182.739 34.8693C182.417 34.4826 181.901 34.2249 181.193 34.2249C180.484 34.2249 179.968 34.4182 179.646 34.8693C179.324 35.2559 179.131 35.9002 179.131 36.7379Z" fill="#181818"/>
<path d="M158.319 27.9744C158.448 30.6163 154.453 30.4874 154.388 27.9744C144.723 35.3845 132.48 21.5953 141.308 12.961C147.236 6.58188 158.77 11.2857 158.319 20.1133V27.9744ZM148.46 26.0414C156.257 26.2991 156.128 13.7986 148.46 13.9275C140.599 13.7986 140.341 26.2991 148.46 26.0414Z" fill="#E55030"/>
<path d="M165.019 28.0388C165.084 30.6162 161.024 30.6162 161.089 28.0388V19.9844C159.8 14.4429 171.076 5.74413 173.138 11.9299C173.138 12.8965 172.236 13.9919 171.141 13.9274C163.73 13.7341 165.084 23.2061 165.019 28.0388Z" fill="#E55030"/>
<path d="M185.769 9.99716C188.347 9.93273 188.347 13.9922 185.769 13.9277H182.934V28.0391C182.934 29.0056 182.032 30.101 180.937 30.0366C179.906 30.101 178.939 29.0056 179.004 28.0391V13.9277C177.393 13.9277 174.106 14.4432 174.171 11.9302C174.106 9.48168 177.457 9.99716 179.004 9.99716C179.455 8.19298 177.521 -0.183621 180.937 0.0096847C184.352 -0.248057 182.483 8.19298 182.934 9.99716H185.769Z" fill="#E55030"/>
</svg>
