<svg width="28" height="22" viewBox="0 0 28 22" fill="none" xmlns="http://www.w3.org/2000/svg">
  <path d="M28 0L22.0584 12.992L21.5385 9.48267C22.6773 9.48267 23.6923 9.75645 24.5836 10.304C25.4748 10.8516 26.1928 11.5733 26.7374 12.4693C27.2821 13.3156 27.5544 14.2862 27.5544 15.3813C27.5544 16.4764 27.2821 17.472 26.7374 18.368C26.1928 19.264 25.4748 19.9858 24.5836 20.5333C23.6923 21.0311 22.6773 21.28 21.5385 21.28C20.4492 21.28 19.4341 21.0311 18.4934 20.5333C17.6021 19.9858 16.8842 19.2391 16.3395 18.2933C15.7949 17.3476 15.5225 16.3022 15.5225 15.1573C15.5225 14.0124 15.7454 12.8178 16.191 11.5733C16.6861 10.3289 17.5526 8.71112 18.7905 6.72L22.8011 0H28ZM12.4775 0L6.53581 12.992L6.01592 9.48267C7.15473 9.48267 8.16976 9.75645 9.06101 10.304C9.95225 10.8516 10.6702 11.5733 11.2149 12.4693C11.7595 13.3156 12.0318 14.2862 12.0318 15.3813C12.0318 16.4764 11.7595 17.472 11.2149 18.368C10.6702 19.264 9.95225 19.9858 9.06101 20.5333C8.16976 21.0311 7.15473 21.28 6.01592 21.28C4.92661 21.28 3.91158 21.0311 2.97082 20.5333C2.07958 19.9858 1.36163 19.2391 0.816976 18.2933C0.272325 17.3476 0 16.3022 0 15.1573C0 14.0124 0.222812 12.8178 0.668435 11.5733C1.16357 10.3289 2.03006 8.71112 3.2679 6.72L7.27852 0H12.4775Z" fill="#E55030" />
</svg>
