<svg width="30" height="31" viewBox="0 0 30 31" fill="none" xmlns="http://www.w3.org/2000/svg">
<g clip-path="url(#clip0_4734_808)">
<path d="M26.5996 14.2108C27.0262 13.6593 27.3649 13.2168 27.615 12.883C29.4164 10.488 30.1972 8.95807 29.9579 8.29105L29.864 8.13484C29.8016 8.04101 29.6399 7.95484 29.3798 7.87684C29.1194 7.7989 28.7862 7.78645 28.3803 7.8379L23.8819 7.86963C23.7778 7.85927 23.6729 7.86169 23.5694 7.87684C23.4653 7.89268 23.3977 7.90857 23.3663 7.92373C23.3349 7.93962 23.309 7.95236 23.2883 7.96273L23.2259 8.00962C23.1739 8.04067 23.1167 8.0955 23.0542 8.17383C22.9917 8.25211 22.9393 8.34284 22.8979 8.44733C22.4085 9.70721 21.8515 10.8788 21.2267 11.9618C20.8413 12.6075 20.4871 13.1676 20.1647 13.6407C19.8418 14.115 19.5711 14.4637 19.3524 14.6872C19.1338 14.911 18.9358 15.091 18.7589 15.2259C18.5816 15.3618 18.4464 15.4187 18.353 15.398C18.2641 15.3786 18.1756 15.3577 18.0874 15.3352C17.9415 15.2418 17.8242 15.1145 17.736 14.9528C17.6474 14.7917 17.5877 14.5885 17.5562 14.3437C17.5252 14.0991 17.5066 13.8881 17.5018 13.7108C17.4962 13.5339 17.499 13.2842 17.5097 12.961C17.5201 12.6381 17.5252 12.4199 17.5252 12.305C17.5252 11.9097 17.5331 11.48 17.5488 11.0165C17.5642 10.5533 17.5774 10.186 17.5877 9.91521C17.5981 9.64482 17.6032 9.3582 17.6032 9.05608C17.6032 8.75463 17.5849 8.51732 17.5482 8.34527C17.5115 8.17337 17.4566 8.00585 17.3845 7.84551C17.3114 7.68445 17.2048 7.55922 17.064 7.47097C16.9234 7.38232 16.7491 7.31233 16.5409 7.25986C15.9887 7.13464 15.2858 7.06775 14.4322 7.05676C12.4953 7.03675 11.2509 7.16158 10.699 7.43197C10.4804 7.54683 10.2824 7.7027 10.1055 7.90068C9.91791 8.13005 9.89204 8.25521 10.0276 8.27522C10.6525 8.36905 11.0947 8.59323 11.3551 8.94708L11.4489 9.13435C11.5217 9.27023 11.5945 9.50962 11.6676 9.85311C11.7404 10.1967 11.7873 10.5767 11.8083 10.9933C11.8604 11.7535 11.8604 12.404 11.8083 12.9458C11.7562 13.4876 11.7069 13.9091 11.66 14.2106C11.6131 14.5127 11.5427 14.7572 11.4493 14.9445C11.3554 15.1324 11.293 15.2469 11.2616 15.2886C11.2303 15.33 11.2044 15.3562 11.1837 15.3666C11.0491 15.4183 10.9061 15.4447 10.7619 15.4446C10.616 15.4446 10.4391 15.3714 10.2308 15.2255C10.0224 15.0803 9.80621 14.8796 9.58271 14.6244C9.35853 14.3695 9.10639 14.0126 8.82495 13.5542C8.54385 13.0965 8.25205 12.5547 7.95026 11.9301L7.70055 11.4769C7.54434 11.1858 7.33081 10.7612 7.06008 10.2042C6.78935 9.64719 6.54961 9.10849 6.34166 8.58737C6.2582 8.36905 6.13331 8.20246 5.96678 8.08761L5.88884 8.04072C5.83677 7.9993 5.75331 7.95484 5.6388 7.90823C5.52315 7.8611 5.40261 7.82698 5.27942 7.80651L0.99963 7.83756C0.562313 7.83756 0.265715 7.93692 0.109498 8.13484L0.0470567 8.22833C0.0154977 8.28074 0 8.3642 0 8.47838C0 8.59323 0.0313899 8.73361 0.0938315 8.89986C0.718755 10.3684 1.39823 11.7846 2.13215 13.1483C2.86645 14.5127 3.50417 15.6115 4.04563 16.4444C4.58709 17.278 5.13893 18.0637 5.70146 18.8031C6.264 19.5426 6.63612 20.0161 6.8182 20.2241C7.00028 20.4327 7.14343 20.589 7.24763 20.6928L7.63806 21.068C7.88777 21.3177 8.25509 21.617 8.73935 21.9661C9.22356 22.3151 9.75955 22.6587 10.3483 22.9967C10.9364 23.3354 11.6213 23.6109 12.4021 23.8248C13.183 24.0386 13.9431 24.1244 14.6825 24.0824H16.4788C16.8434 24.0513 17.1192 23.9372 17.3065 23.7388L17.3689 23.6609C17.4103 23.5988 17.4496 23.5022 17.4861 23.3722C17.5224 23.2422 17.5411 23.0987 17.5411 22.9428C17.5303 22.4952 17.5645 22.0909 17.6425 21.7322C17.7204 21.3729 17.809 21.1025 17.9081 20.9197C18.007 20.7379 18.1187 20.5841 18.2439 20.4589C18.3688 20.3337 18.4571 20.2588 18.5095 20.2326C18.5616 20.2071 18.6034 20.1888 18.6344 20.1778C18.8841 20.0946 19.1783 20.1754 19.517 20.4199C19.8553 20.6652 20.173 20.9665 20.4699 21.3259C20.7665 21.6853 21.1231 22.0885 21.5398 22.5365C21.9561 22.9841 22.3206 23.3173 22.6331 23.5359L22.9456 23.7239C23.1538 23.8484 23.4242 23.9629 23.7578 24.0675C24.0909 24.1713 24.3827 24.1975 24.6324 24.1454L28.6311 24.0826C29.0267 24.0826 29.334 24.0178 29.5527 23.8874C29.7713 23.7581 29.9014 23.6139 29.9431 23.4581C29.9845 23.3018 29.9873 23.1256 29.9511 22.9272C29.9146 22.7296 29.878 22.5917 29.8418 22.5137C29.8053 22.4358 29.7714 22.3702 29.74 22.3185C29.2193 21.3814 28.2249 20.2305 26.7566 18.8665L26.7253 18.8354L26.7098 18.8196L26.6943 18.8044H26.6786C26.0119 18.1691 25.5904 17.7421 25.4135 17.5231C25.0907 17.1072 25.0176 16.6853 25.1949 16.2584C25.319 15.9346 25.7874 15.2525 26.5996 14.2108Z" fill="white" fill-opacity="0.4"/>
</g>
<defs>
<clipPath id="clip0_4734_808">
<rect width="30" height="30" fill="white" transform="translate(0 0.613281)"/>
</clipPath>
</defs>
</svg>
