<svg width="31" height="30" viewBox="0 0 31 30" fill="none" xmlns="http://www.w3.org/2000/svg">
<g clip-path="url(#clip0_4701_99)">
<path fill-rule="evenodd" clip-rule="evenodd" d="M15.6974 0H15.7049C23.9755 0 30.7012 6.72938 30.7012 15C30.7012 23.2706 23.9755 30 15.7049 30C12.6543 30 9.82492 29.0925 7.45305 27.5213L1.68742 29.3644L3.5568 23.7919C1.75867 21.3225 0.701172 18.2812 0.701172 15C0.701172 6.7275 7.4268 0 15.6974 0ZM21.4892 23.2988C22.6348 23.0513 24.071 22.2038 24.4329 21.1819C24.7948 20.1582 24.7948 19.2863 24.6898 19.1007C24.605 18.9534 24.4045 18.8569 24.1052 18.7128C24.0273 18.6753 23.9427 18.6345 23.8517 18.5888C23.411 18.3694 21.2679 17.3101 20.8629 17.1695C20.4654 17.0195 20.0867 17.072 19.7867 17.4957C19.7296 17.5756 19.6727 17.6556 19.6161 17.7353C19.2541 18.2443 18.905 18.7353 18.6148 19.0482C18.3504 19.3295 17.9192 19.3651 17.5573 19.2151C17.5178 19.1986 17.4726 19.1804 17.422 19.1599C16.849 18.9285 15.5781 18.4152 14.0398 17.0457C12.7423 15.8907 11.861 14.4526 11.606 14.0213C11.3557 13.5887 11.5716 13.335 11.7712 13.1006C11.7749 13.0962 11.7786 13.0919 11.7823 13.0876C11.911 12.9284 12.0359 12.7958 12.1614 12.6625C12.2516 12.5667 12.3422 12.4705 12.4348 12.3638C12.4485 12.348 12.4619 12.3326 12.4749 12.3176C12.6715 12.0916 12.7885 11.9571 12.9204 11.6757C13.0704 11.3851 12.9635 11.0851 12.8567 10.8638C12.7831 10.7089 12.3289 9.60678 11.939 8.66067C11.7721 8.2558 11.617 7.87949 11.5085 7.6182C11.2179 6.92258 10.9967 6.89633 10.556 6.87758C10.5425 6.8769 10.5289 6.87621 10.5151 6.87551C10.3759 6.86846 10.2225 6.8607 10.0535 6.8607C9.4798 6.8607 8.88167 7.02945 8.5198 7.39883C8.50715 7.41174 8.49397 7.42515 8.48029 7.43906C8.01733 7.90989 6.98605 8.95872 6.98605 11.0495C6.98605 13.1442 8.47238 15.1715 8.74738 15.5466C8.75496 15.5569 8.76162 15.566 8.7673 15.5738C8.78385 15.5956 8.81504 15.6407 8.86043 15.7065C9.42195 16.5196 12.157 20.4804 16.2354 22.1701C19.6817 23.5988 20.7054 23.4657 21.4892 23.2988Z" fill="#181818"/>
</g>
<defs>
<clipPath id="clip0_4701_99">
<rect width="30" height="30" fill="white" transform="translate(0.701172)"/>
</clipPath>
</defs>
</svg>
